<svg width="11" height="16" viewBox="0 0 11 16" fill="none" xmlns="http://www.w3.org/2000/svg">
<path fill-rule="evenodd" clip-rule="evenodd" d="M10.5029 6H6.6899L8.9629 0.697C8.99552 0.620914 9.00873 0.537919 9.00136 0.455466C8.99399 0.373012 8.96626 0.293679 8.92066 0.224587C8.87506 0.155495 8.81302 0.0988058 8.7401 0.059607C8.66719 0.0204082 8.58568 -7.34563e-05 8.5029 1.9795e-07H3.5029C3.40498 -8.68919e-05 3.30919 0.0285805 3.22742 0.0824451C3.14564 0.13631 3.08148 0.213 3.0429 0.303L0.042902 7.303C0.0102856 7.37909 -0.00292866 7.46208 0.00444465 7.54453C0.011818 7.62699 0.0395481 7.70632 0.085147 7.77541C0.130746 7.8445 0.192786 7.90119 0.2657 7.94039C0.338614 7.97959 0.420119 8.00007 0.502902 8H2.9769L0.0389019 15.314C-0.161098 15.811 0.455902 16.232 0.845902 15.864L5.8699 11.121L10.8279 6.88C10.9056 6.81357 10.961 6.72493 10.9868 6.62601C11.0126 6.52709 11.0074 6.42266 10.972 6.32678C10.9366 6.23089 10.8726 6.14816 10.7887 6.08974C10.7049 6.03131 10.6051 5.99999 10.5029 6ZM5.9319 7H9.1489L5.2009 10.378L1.8159 13.573L4.1809 7.686C4.21131 7.61014 4.22265 7.52798 4.21394 7.44672C4.20523 7.36546 4.17673 7.28757 4.13094 7.21987C4.08516 7.15217 4.02347 7.09673 3.95129 7.0584C3.87911 7.02007 3.79863 7.00002 3.7169 7H1.2609L3.8329 1H7.7449L5.4719 6.303C5.43929 6.37909 5.42607 6.46208 5.43344 6.54453C5.44082 6.62699 5.46855 6.70632 5.51415 6.77541C5.55975 6.8445 5.62179 6.90119 5.6947 6.94039C5.76761 6.97959 5.84912 7.00007 5.9319 7Z" fill="#0D99FF"/>
</svg>
